<svg xmlns="http://www.w3.org/2000/svg" xmlns:xlink="http://www.w3.org/1999/xlink" width="95" height="74" viewBox="0 0 95 74">
    <defs>
        <path id="a" d="M.533.29h74.084V74H.533z"/>
        <path id="c" d="M0 75h95V1H0z"/>
    </defs>
    <g fill="none" fill-rule="evenodd">
        <g transform="translate(20)">
            <mask id="b" fill="#fff">
                <use xlink:href="#a"/>
            </mask>
            <path fill="#38424E" d="M7.247 29.735h11.727a.923.923 0 0 0 .925-.921V23.4l17.79-10.07L55.25 23.399v5.417c0 .508.413.92.926.92h11.726v42.422H48.92V51.734a.924.924 0 0 0-.926-.921H27.157a.923.923 0 0 0-.926.921v20.423H7.247V29.735zm31.37 42.422h8.45V52.656h-8.45v19.501zM1.459 74h72.232a.923.923 0 0 0 .926-.922.923.923 0 0 0-.926-.92h-3.935V28.813a.924.924 0 0 0-.927-.922H57.103v-5.03a.923.923 0 0 0-.464-.798l-18.022-10.33V8.237h7.755a.924.924 0 0 0 .927-.921V1.21a.924.924 0 0 0-.927-.922h-8.681a.923.923 0 0 0-.926.922v10.52L18.516 22.064a.922.922 0 0 0-.469.8v5.028H6.321a.924.924 0 0 0-.926.922v43.344H1.459a.923.923 0 0 0-.926.921c0 .51.414.922.926.922z" mask="url(#b)"/>
        </g>
        <mask id="d" fill="#fff">
            <use xlink:href="#c"/>
        </mask>
        <path fill="#38424E" d="M33.84 59.221h6.32V52.78h-6.32v6.442zM41.08 51h-8.16c-.509 0-.92.399-.92.89v8.221c0 .49.411.889.92.889h8.16c.508 0 .92-.399.92-.889V51.89c0-.491-.412-.89-.92-.89zM33.84 46.222h6.32v-6.443h-6.32v6.443zM41.08 38h-8.16c-.509 0-.92.398-.92.89v8.221c0 .491.411.889.92.889h8.16c.508 0 .92-.398.92-.889V38.89c0-.492-.412-.89-.92-.89zM74.84 59.221h6.32V52.78h-6.32v6.442zM73.92 61h8.16c.51 0 .92-.399.92-.889V51.89c0-.491-.41-.89-.92-.89h-8.16c-.51 0-.92.399-.92.89v8.221c0 .49.41.889.92.889zM74.84 46.221h6.32V39.78h-6.32v6.442zM73.92 48h8.16c.51 0 .92-.398.92-.889V38.89c0-.492-.41-.89-.92-.89h-8.16c-.51 0-.92.398-.92.89v8.221c0 .491.41.889.92.889zM48.84 46.221h6.32V39.78h-6.32v6.442zM47.92 48h8.16c.509 0 .92-.398.92-.889V38.89c0-.492-.411-.89-.92-.89h-8.16c-.508 0-.92.398-.92.89v8.221c0 .491.412.889.92.889zM59.84 46.221h6.32V39.78h-6.32v6.442zM58 38.89v8.221c0 .491.411.889.92.889h8.16c.509 0 .92-.398.92-.889V38.89c0-.492-.411-.89-.92-.89h-8.16c-.509 0-.92.398-.92.89z" mask="url(#d)"/>
        <path fill="#F76C6C" d="M58 34c3.86 0 7-3.14 7-7s-3.14-7-7-7-7 3.14-7 7 3.14 7 7 7M59.556 52.813h8.567V72H70V51.907c0-.5-.42-.907-.939-.907H47.938c-.519 0-.938.406-.938.907V72h12.556V52.813zM58.934 8.69h8.099c.535 0 .967-.4.967-.891V1.89C68 1.4 67.568 1 67.033 1h-9.066c-.535 0-.967.4-.967.891V12h1.934V8.69zM21.457 62.118c-.963.836-2.047 1.553-3.192 2.03V74h-4.577v-8.896c-7.71 0-13.009-7.225-11.443-14.45C-2.694 44.982.98 35.727 8.75 35.43c4.938-9.434 19.392-5.852 19.152 5.195 3.854 3.402 4.155 9.97.662 13.732 2.168 4.538-2.289 9.733-7.107 7.762" mask="url(#d)"/>
    </g>
</svg>
