<svg id="Calque_1" data-name="Calque 1" xmlns="http://www.w3.org/2000/svg" viewBox="0 0 500 500"><defs><style>.cls-1{fill:#f76c6c;}.cls-2{fill:#fff;}.cls-3{fill:#38424e;}</style></defs><title>Speciasliste_adaptable</title><polyline class="cls-1" points="315.08 280.43 358.79 280.43 357.01 189.14 236.93 189.14 236.93 226.28 236.93 280.43 280.36 280.43"/><ellipse class="cls-2" cx="299.83" cy="269.18" rx="19.55" ry="15.59"/><ellipse class="cls-2" cx="222.94" cy="230.51" rx="15.59" ry="19.55"/><polyline class="cls-1" points="158.69 280.43 114.94 280.43 116.72 371.73 236.93 371.73 236.93 334.58 236.93 280.43 193.44 280.43"/><ellipse class="cls-2" cx="173.89" cy="291.68" rx="19.55" ry="15.59"/><path class="cls-3" d="M110.85,238.11V202.18a21.76,21.76,0,0,1,21.74-21.74H341.26A21.76,21.76,0,0,1,363,202.18v156.5a21.76,21.76,0,0,1-21.74,21.74H132.59a21.76,21.76,0,0,1-21.74-21.74v-82.6h8.61l.09,82.6a13.06,13.06,0,0,0,13,13.05H341.26a13.07,13.07,0,0,0,13.05-13.05V202.18a13.06,13.06,0,0,0-13.05-13H132.59a13.06,13.06,0,0,0-13,13v35.93Z"/><path class="cls-3" d="M136.94,176.09a4.34,4.34,0,0,1-3.21-7.27c11.79-13,27.33-14.46,38-14.46a4.35,4.35,0,0,1,0,8.69c-9,0-22.09,1.21-31.57,11.62A4.3,4.3,0,0,1,136.94,176.09Z"/><path class="cls-3" d="M384.74,180.44a4.34,4.34,0,0,1-4.35-4.35,13.06,13.06,0,0,0-13-13,4.35,4.35,0,1,1,0-8.69,21.77,21.77,0,0,1,21.74,21.73A4.35,4.35,0,0,1,384.74,180.44Z"/><path class="cls-3" d="M164.57,284.78H115.2a4.35,4.35,0,0,1,0-8.7h49.37a4.35,4.35,0,0,1,0,8.7Z"/><path class="cls-3" d="M176.06,315.21a21.74,21.74,0,0,1-14.37-38,4.35,4.35,0,1,1,5.75,6.52,13,13,0,1,0,17.24,0,4.35,4.35,0,1,1,5.75-6.52,21.74,21.74,0,0,1-14.37,38Z"/><path class="cls-3" d="M236.93,284.78H187.56a4.35,4.35,0,0,1,0-8.7h49.37a4.35,4.35,0,0,1,0,8.7Z"/><path class="cls-3" d="M358.65,284.78H309.29a4.35,4.35,0,0,1,0-8.7h49.36a4.35,4.35,0,0,1,0,8.7Z"/><path class="cls-3" d="M286.3,284.78a4.32,4.32,0,0,1-2.88-1.08,21.74,21.74,0,1,1,28.75,0,4.35,4.35,0,1,1-5.75-6.52,13,13,0,1,0-17.24,0,4.34,4.34,0,0,1-2.88,7.6Z"/><path class="cls-3" d="M286.3,284.78H236.93a4.35,4.35,0,0,1,0-8.7h49.36a4.35,4.35,0,0,1,0,8.7Z"/><path class="cls-3" d="M236.93,380.42a4.34,4.34,0,0,1-4.35-4.35V339.75a4.35,4.35,0,1,1,8.69,0v36.32A4.34,4.34,0,0,1,236.93,380.42Z"/><path class="cls-3" d="M250,350a21.75,21.75,0,0,1-16.3-7.36,4.35,4.35,0,1,1,6.52-5.76,13,13,0,1,0,0-17.23,4.35,4.35,0,1,1-6.53-5.75A21.74,21.74,0,1,1,250,350Z"/><path class="cls-3" d="M236.93,321.1a4.34,4.34,0,0,1-4.35-4.35V280.43a4.35,4.35,0,1,1,8.69,0v36.32A4.34,4.34,0,0,1,236.93,321.1Z"/><path class="cls-3" d="M236.93,225.46a4.34,4.34,0,0,1-4.35-4.35V184.79a4.35,4.35,0,1,1,8.69,0v36.32A4.34,4.34,0,0,1,236.93,225.46Z"/><path class="cls-3" d="M223.89,254.35a21.74,21.74,0,1,1,16.3-36.12,4.35,4.35,0,0,1-6.52,5.76,13,13,0,1,0,0,17.24,4.35,4.35,0,0,1,6.53,5.75A21.73,21.73,0,0,1,223.89,254.35Z"/><path class="cls-3" d="M236.93,284.78a4.34,4.34,0,0,1-4.35-4.35V244.11a4.35,4.35,0,1,1,8.69,0v36.32A4.34,4.34,0,0,1,236.93,284.78Z"/><path class="cls-3" d="M202.15,176.09a4.34,4.34,0,0,1-4.35-4.34V132.62a4.35,4.35,0,1,1,8.7,0v39.13A4.34,4.34,0,0,1,202.15,176.09Z"/><path class="cls-3" d="M202.15,137a4.35,4.35,0,0,1-4.35-4.35,13.06,13.06,0,0,1,13-13,4.35,4.35,0,1,1,0,8.69,4.34,4.34,0,0,0-4.34,4.35A4.35,4.35,0,0,1,202.15,137Z"/><path class="cls-3" d="M297.79,176.09a4.34,4.34,0,0,1-4.35-4.34V132.62a4.35,4.35,0,1,1,8.7,0v39.13A4.34,4.34,0,0,1,297.79,176.09Z"/><path class="cls-3" d="M297.79,137a4.35,4.35,0,0,1-4.35-4.35,4.34,4.34,0,0,0-4.34-4.35,4.35,4.35,0,1,1,0-8.69,13.06,13.06,0,0,1,13,13A4.35,4.35,0,0,1,297.79,137Z"/><path class="cls-3" d="M239.69,128.27H210.84a4.35,4.35,0,0,1,0-8.69h28.85Z"/><path class="cls-3" d="M262.38,119.58H289a4.35,4.35,0,1,1,0,8.69H262.38Z"/><path class="cls-3" d="M297.79,150H202.15a4.35,4.35,0,1,1,0-8.69h95.64a4.35,4.35,0,1,1,0,8.69Z"/><path class="cls-3" d="M219.54,176.09a4.34,4.34,0,0,1-4.35-4.34V145.66a4.35,4.35,0,0,1,8.7,0v26.09A4.34,4.34,0,0,1,219.54,176.09Z"/><path class="cls-3" d="M280.4,176.09a4.34,4.34,0,0,1-4.35-4.34V145.66a4.35,4.35,0,0,1,8.7,0v26.09A4.34,4.34,0,0,1,280.4,176.09Z"/><path class="cls-3" d="M121.06,193.54a4.34,4.34,0,0,1-3.21-7.27l15.88-17.45a4.34,4.34,0,1,1,6.42,5.85l-15.88,17.45A4.32,4.32,0,0,1,121.06,193.54Z"/><path class="cls-3" d="M371.76,360.2a4.35,4.35,0,0,1-2.93-7.56c10.42-9.48,11.62-22.56,11.62-31.57v-145a4.35,4.35,0,0,1,8.7,0v145c0,10.66-1.5,26.2-14.47,38A4.32,4.32,0,0,1,371.76,360.2Z"/><path class="cls-3" d="M354.31,376.07a4.35,4.35,0,0,1-2.93-7.56l17.45-15.87a4.34,4.34,0,1,1,5.85,6.42l-17.45,15.88A4.31,4.31,0,0,1,354.31,376.07Z"/><path class="cls-3" d="M341.26,189.14a4.35,4.35,0,0,1-3.07-7.42l26.09-26.09a4.35,4.35,0,1,1,6.14,6.15l-26.08,26.08A4.34,4.34,0,0,1,341.26,189.14Z"/><path class="cls-3" d="M202.15,163.05H171.72a4.35,4.35,0,1,1,0-8.69h30.43a4.35,4.35,0,1,1,0,8.69Z"/><path class="cls-3" d="M280.4,163.05H219.54a4.35,4.35,0,1,1,0-8.69H280.4a4.35,4.35,0,1,1,0,8.69Z"/><path class="cls-3" d="M367.35,163.05H297.79a4.35,4.35,0,1,1,0-8.69h69.56a4.35,4.35,0,1,1,0,8.69Z"/></svg>