<svg id="Calque_1" data-name="Calque 1" xmlns="http://www.w3.org/2000/svg" viewBox="0 0 500 500"><defs><style>.cls-1{fill:#38424e;}.cls-2{fill:#f76c6c;}</style></defs><title>Formation hybrique</title><path class="cls-1" d="M180.56,291c-35.05-36.19-38.3-96.1-.1-135.49,59.18-61.65,165.22-20.71,166.7,65.6a97.46,97.46,0,0,1-43.1,82.2,96.47,96.47,0,0,1-14.6,8,4.74,4.74,0,0,0-3,4.44V326.2h-8.88V277.87l28.11-8.39a4.89,4.89,0,0,0,3.46-4.93V246.3L321,227.07c.5-1,1-1.48,1-2.47V197a14.36,14.36,0,0,0,9.86-13.81,14.8,14.8,0,1,0-29.59,0A14.37,14.37,0,0,0,312.14,197v26.14l-11.83,19.24a6.89,6.89,0,0,0-1,2.95v16.28L277.62,268V254.69l12.82-30.58a3,3,0,0,0,.5-2v-8.87a15,15,0,0,0,9.86-13.81,14.8,14.8,0,1,0-29.59,0,14.37,14.37,0,0,0,9.86,13.81v7.39l-12.82,30.58a3,3,0,0,0-.49,2v73.48H256.41V245.31A15,15,0,0,0,266.77,231a15.29,15.29,0,1,0-20.22,14.3v81.88H235.2V253.7a3,3,0,0,0-.49-2l-12.82-31.08v-7.89A14.36,14.36,0,0,0,231.75,199a14.8,14.8,0,0,0-29.59,0A14.36,14.36,0,0,0,212,212.76v8.88a2.93,2.93,0,0,0,.5,2l12.82,30.58v13.32l-21.7-6.41V245.31a3.78,3.78,0,0,0-1-2.46l-11.84-19.24V197.47a14.37,14.37,0,0,0,9.87-13.81,14.8,14.8,0,0,0-29.59,0A14.36,14.36,0,0,0,181,197.47v27.62a3.73,3.73,0,0,0,1,2.47l11.83,19.23V265a5.94,5.94,0,0,0,3.46,4.94l28.11,8.38v48.33H191.8a4.94,4.94,0,0,0,0,9.87h12.33v49.32a4.66,4.66,0,0,0,4.93,4.93h14.31v8.88a7.79,7.79,0,0,0,7.89,7.89h37a7.79,7.79,0,0,0,7.89-7.89v-8.88h14.3a4.66,4.66,0,0,0,4.94-4.93V375h12.33a4.94,4.94,0,0,0,0-9.87H295.38v-9.37h12.33a4.93,4.93,0,0,0,0-9.86H295.38v-9.37h12.33a4.94,4.94,0,0,0,0-9.87H295.38V319.3a107.72,107.72,0,0,0,13.71-7.6A106.42,106.42,0,0,0,357,221.15c-2-95.19-118.37-140.57-184-72.5-41.74,43.34-38,108.83-.13,148.22M317.08,178.24a4.93,4.93,0,1,1-4.94,4.93A4.94,4.94,0,0,1,317.08,178.24ZM286,194a4.93,4.93,0,1,1-4.93,4.93A4.94,4.94,0,0,1,286,194Zm-69,9.86a4.93,4.93,0,1,1,4.93-4.93A4.94,4.94,0,0,1,217,203.88ZM185.88,188.1a4.93,4.93,0,1,1,4.93-4.93A4.66,4.66,0,0,1,185.88,188.1Zm66.09,37a5.48,5.48,0,0,1,5.43,5.43c-.5,3.45-3,5.42-5.43,5.42a5.43,5.43,0,0,1,0-10.85Zm14.8,173.12H233.23v-7.4h33.54Z"/><path class="cls-1" d="M250,110.17a4.66,4.66,0,0,0,4.93-4.93V97.35a4.93,4.93,0,0,0-9.86,0v7.89A4.94,4.94,0,0,0,250,110.17Z"/><path class="cls-1" d="M186.87,123.49a5.08,5.08,0,0,0,8.88-4.93l-3.95-6.91a5.08,5.08,0,0,0-8.88,4.94Z"/><path class="cls-1" d="M138.53,164.43l6.91,3.94a5.07,5.07,0,0,0,4.93-8.87l-6.9-3.95a5,5,0,0,0-6.91,2A6.1,6.1,0,0,0,138.53,164.43Z"/><path class="cls-1" d="M361.47,281.81l-6.91-3.94a5.07,5.07,0,1,0-4.93,8.87l6.9,3.95a5,5,0,0,0,6.91-2C364.43,285.76,363.44,282.8,361.47,281.81Z"/><path class="cls-1" d="M132.12,218.19h-7.89a4.93,4.93,0,0,0,0,9.86h7.89a4.66,4.66,0,0,0,4.93-4.93A4.94,4.94,0,0,0,132.12,218.19Z"/><path class="cls-1" d="M375.77,218.19h-7.89a4.93,4.93,0,0,0,0,9.86h7.89a4.66,4.66,0,0,0,4.93-4.93A4.94,4.94,0,0,0,375.77,218.19Z"/><path class="cls-1" d="M145.44,277.87l-6.91,3.94a5.08,5.08,0,1,0,4.94,8.88l6.9-3.95a5.44,5.44,0,0,0,2-6.9A5,5,0,0,0,145.44,277.87Z"/><path class="cls-1" d="M354.56,168.37l6.91-3.94a5.08,5.08,0,1,0-4.94-8.88l-6.9,3.95a5.44,5.44,0,0,0-2,6.9A5,5,0,0,0,354.56,168.37Z"/><path class="cls-1" d="M306.72,125a5,5,0,0,0,6.9-2l3.95-6.91a5.08,5.08,0,0,0-8.88-4.93l-3.94,6.91C303.27,120.53,304.25,124,306.72,125Z"/><rect class="cls-2" x="214.36" y="336.65" width="73.73" height="43.46"/><rect class="cls-2" x="233.23" y="390.81" width="33.54" height="7.4"/><circle class="cls-2" cx="251.97" cy="230.52" r="5.43"/><circle class="cls-2" cx="286" cy="198.95" r="5.43"/><circle class="cls-2" cx="317.08" cy="183.17" r="5.43"/><circle class="cls-2" cx="216.95" cy="198.95" r="5.43"/><circle class="cls-2" cx="185.88" cy="183.17" r="5.43"/><line class="cls-1" x1="253.53" y1="247.24" x2="246.47" y2="252.76"/></svg>